<?xml version="1.0" encoding="UTF-8" standalone="no"?>
<!-- Created with Inkscape (http://www.inkscape.org/) -->

<svg
   xmlns:dc="http://purl.org/dc/elements/1.1/"
   xmlns:cc="http://creativecommons.org/ns#"
   xmlns:rdf="http://www.w3.org/1999/02/22-rdf-syntax-ns#"
   xmlns:svg="http://www.w3.org/2000/svg"
   xmlns="http://www.w3.org/2000/svg"
   xmlns:sodipodi="http://sodipodi.sourceforge.net/DTD/sodipodi-0.dtd"
   xmlns:inkscape="http://www.inkscape.org/namespaces/inkscape"
   width="210mm"
   height="297mm"
   viewBox="0 0 744.09448819 1052.3622047"
   id="svg2"
   version="1.1"
   inkscape:version="0.91 r13725"
   sodipodi:docname="drawing.svg">
  <defs
     id="defs4" />
  <sodipodi:namedview
     id="base"
     pagecolor="#ffffff"
     bordercolor="#666666"
     borderopacity="1.0"
     inkscape:pageopacity="0.0"
     inkscape:pageshadow="2"
     inkscape:zoom="0.98994949"
     inkscape:cx="391.7183"
     inkscape:cy="628.13272"
     inkscape:document-units="px"
     inkscape:current-layer="layer1"
     showgrid="false"
     inkscape:window-width="1490"
     inkscape:window-height="847"
     inkscape:window-x="2240"
     inkscape:window-y="86"
     inkscape:window-maximized="0" />
  <metadata
     id="metadata7">
    <rdf:RDF>
      <cc:Work
         rdf:about="">
        <dc:format>image/svg+xml</dc:format>
        <dc:type
           rdf:resource="http://purl.org/dc/dcmitype/StillImage" />
      </cc:Work>
    </rdf:RDF>
  </metadata>
  <g
     inkscape:label="Layer 1"
     inkscape:groupmode="layer"
     id="layer1"
     transform="matrix(1.4851835,0,0,1.6114143,0.13268455,-643.29105)">
    <rect
       style="opacity:1;fill:none;fill-opacity:1;fill-rule:evenodd;stroke:#000000;stroke-width:5.17125939;stroke-linecap:butt;stroke-miterlimit:4;stroke-dasharray:none;stroke-opacity:1"
       id="rect4136"
       width="496.41577"
       height="648.79718"
       x="2.1528249"
       y="401.41214" />
    <rect
       style="opacity:1;fill:#4dba87;fill-opacity:1;fill-rule:evenodd;stroke:#000000;stroke-width:4.5863409;stroke-linecap:butt;stroke-miterlimit:4;stroke-dasharray:none;stroke-opacity:1"
       id="rect4140"
       width="219.91496"
       height="160.47849"
       x="21.388033"
       y="419.91391" />
    <rect
       style="opacity:1;fill:#435466;fill-opacity:1;fill-rule:evenodd;stroke:#000000;stroke-width:6.08809662;stroke-linecap:butt;stroke-miterlimit:4;stroke-dasharray:none;stroke-opacity:1"
       id="rect4142"
       width="218.00073"
       height="447.7179"
       x="260.93512"
       y="419.98904" />
    <rect
       style="opacity:1;fill:#435466;fill-opacity:1;fill-rule:evenodd;stroke:#000000;stroke-width:4.5868597;stroke-linecap:butt;stroke-miterlimit:4;stroke-dasharray:none;stroke-opacity:1"
       id="rect4144"
       width="219.06345"
       height="262.93179"
       x="21.863592"
       y="604.29718" />
    <rect
       style="opacity:1;fill:#4dba87;fill-opacity:1;fill-rule:evenodd;stroke:#000000;stroke-width:5.22882748;stroke-linecap:butt;stroke-miterlimit:4;stroke-dasharray:none;stroke-opacity:1"
       id="rect4146"
       width="458.0975"
       height="139.56331"
       x="21.883429"
       y="890.64575" />
    <g
       transform="matrix(7.9311015,0,0,8.2048628,-686.19267,-2666.8675)"
       style="font-style:normal;font-variant:normal;font-weight:normal;font-stretch:normal;font-size:39.99970245px;line-height:125%;font-family:FreeSerif;-inkscape-font-specification:'FreeSerif, Normal';text-align:start;letter-spacing:0px;word-spacing:0px;writing-mode:lr-tb;text-anchor:start;fill:#ffffff;fill-opacity:1;stroke:none;stroke-width:1px;stroke-linecap:butt;stroke-linejoin:miter;stroke-opacity:1"
       id="flowRoot4169">
      <path
         d="m 103.68269,401.76108 q -2.27998,0 -4.039965,0.84 -1.759987,0.79999 -2.839979,2.07998 -1.079992,1.27999 -1.759987,2.99998 -0.679995,1.71999 -0.959993,3.31997 -0.239998,1.55999 -0.239998,3.15998 0,5.55996 2.799979,8.79993 2.839979,3.19998 7.719943,3.19998 2.15998,0 3.71997,-0.67999 1.59999,-0.72 1.59999,-1.67999 l 0,-6.47995 q 0,-2.23999 -0.63999,-2.79998 -0.6,-0.6 -2.87998,-0.76 l 0,-0.71999 10.19992,0 0,0.71999 q -1.75999,0.16 -2.27998,0.76 -0.52,0.55999 -0.52,2.31998 l 0,8.11994 q -1.19999,1.03999 -4.35997,1.91999 -3.11997,0.87999 -5.67995,0.87999 -1.79999,0 -3.599977,-0.36 -1.799987,-0.36 -3.759972,-1.31999 -1.959986,-0.95999 -3.439975,-2.39998 -1.479988,-1.47999 -2.479981,-3.91997 -0.959993,-2.43998 -0.959993,-5.55996 0,-6.11995 3.839972,-10.07993 3.879971,-3.95997 9.879926,-3.95997 2.31998,0 4.55997,0.68 2.27998,0.63999 2.63998,0.63999 0.63999,0 1.11999,-0.35999 0.47999,-0.4 0.67999,-0.96 l 0.88,0 0.31999,8.43994 -0.91999,0 q -1.27999,-3.11998 -3.19998,-4.95996 -1.91998,-1.87999 -5.39996,-1.87999 z"
         style=""
         id="path4188" />
    </g>
    <g
       transform="matrix(7.5600558,0,0,8.5126138,-3613.085,-2329.3615)"
       style="font-style:normal;font-variant:normal;font-weight:normal;font-stretch:normal;font-size:39.99954987px;line-height:125%;font-family:FreeSerif;-inkscape-font-specification:'FreeSerif, Normal';text-align:start;letter-spacing:0px;word-spacing:0px;writing-mode:lr-tb;text-anchor:start;fill:#ffffff;fill-opacity:1;stroke:none;stroke-width:1px;stroke-linecap:butt;stroke-linejoin:miter;stroke-opacity:1"
       id="flowRoot4177">
      <path
         d="m 541.39789,370.88412 0,0.75999 -10.19989,0 0,-0.75999 q 1.59998,-0.04 2.19998,-0.32 0.59999,-0.28 0.59999,-1.03999 0,-0.95999 -0.75999,-2.67997 l -1.63998,-3.83995 -10.47989,0 -1.83998,4.67994 q -0.31999,0.83999 -0.31999,1.55999 0,1.63998 2.71997,1.63998 l 0,0.75999 -7.91991,0 0,-0.75999 q 1.47998,-0.08 2.27997,-1.11999 0.83999,-1.07999 2.67997,-5.43994 l 8.31991,-19.63978 0.79999,0 9.95989,22.71975 q 0.95999,2.19997 1.59998,2.79997 0.63999,0.59999 1.99998,0.67999 z m -19.59978,-9.5199 9.23989,0 -4.63995,-10.99987 -4.59994,10.99987 z"
         style=""
         id="path4191" />
    </g>
  </g>
</svg>
